<svg width="23" height="18" viewBox="0 0 23 18" fill="none" xmlns="http://www.w3.org/2000/svg">
<path d="M19.8454 17.8597C19.3952 17.8689 18.953 17.7402 18.5782 17.4907C18.2992 17.3084 17.9732 17.2113 17.64 17.2113C17.3067 17.2113 16.9807 17.3084 16.7017 17.4907C16.3231 17.7317 15.8835 17.8597 15.4347 17.8597C14.9859 17.8597 14.5463 17.7317 14.1677 17.4907C13.8888 17.3082 13.5626 17.211 13.2293 17.211C12.896 17.211 12.5698 17.3082 12.2909 17.4907C11.9123 17.7317 11.4727 17.8597 11.0239 17.8597C10.5751 17.8597 10.1355 17.7317 9.75692 17.4907C9.47815 17.3083 9.15226 17.2112 8.81914 17.2112C8.48602 17.2112 8.16013 17.3083 7.88135 17.4907C7.53808 17.7188 7.13748 17.8456 6.72546 17.8565L6.70276 17.2079C7.0071 17.2006 7.30264 17.1043 7.55281 16.9309C7.93133 16.6899 8.37074 16.5619 8.81946 16.5619C9.26818 16.5619 9.70759 16.6899 10.0861 16.9309C10.3651 17.1132 10.6911 17.2104 11.0244 17.2104C11.3577 17.2104 11.6837 17.1132 11.9627 16.9309C12.3413 16.6897 12.781 16.5615 13.2299 16.5615C13.6789 16.5615 14.1186 16.6897 14.4972 16.9309C14.7762 17.1132 15.1022 17.2104 15.4355 17.2104C15.7688 17.2104 16.0948 17.1132 16.3738 16.9309C16.7524 16.6899 17.1919 16.5619 17.6408 16.5619C18.0896 16.5619 18.5291 16.6899 18.9077 16.9309C19.1874 17.1137 19.5142 17.211 19.8483 17.211C20.1824 17.211 20.5092 17.1137 20.7888 16.9309C21.1632 16.6821 21.6046 16.5536 22.054 16.5624V17.2111C21.7194 17.2019 21.3906 17.2998 21.1154 17.4903C20.7397 17.7402 20.2965 17.8691 19.8454 17.8597Z" fill="white"/>
<path d="M2.2054 17.8596C1.75534 17.8689 1.31323 17.7401 0.938594 17.4905C0.66347 17.2998 0.334649 17.2019 0 17.211V16.5623C0.45017 16.553 0.892396 16.6818 1.26713 16.9314C1.54211 17.1222 1.87085 17.2201 2.2054 17.211C2.54011 17.2202 2.86899 17.1221 3.144 16.9311C3.51794 16.6816 3.95944 16.5529 4.40886 16.5623C4.8474 16.5525 5.27867 16.6754 5.64616 16.9149L5.31892 17.4746C5.05049 17.294 4.73229 17.2018 4.40886 17.211C4.07554 17.202 3.74805 17.2997 3.47416 17.4899C3.09909 17.7402 2.65621 17.8692 2.2054 17.8596Z" fill="white"/>
<path d="M19.8464 15.5891C19.3959 15.5982 18.9534 15.4695 18.5783 15.22C18.2991 15.0375 17.9727 14.9403 17.6392 14.9403C17.3056 14.9403 16.9793 15.0375 16.7001 15.22C16.3215 15.461 15.8821 15.589 15.4333 15.589C14.9845 15.589 14.5451 15.461 14.1665 15.22C13.8877 15.0376 13.5617 14.9405 13.2285 14.9405C12.8954 14.9405 12.5694 15.0376 12.2906 15.22C11.912 15.461 11.4726 15.5891 11.0238 15.5891C10.575 15.5891 10.1355 15.461 9.75697 15.22C9.47814 15.0376 9.15219 14.9405 8.81903 14.9405C8.48586 14.9405 8.15992 15.0376 7.88108 15.22C7.50646 15.4696 7.06434 15.5984 6.61427 15.5891C6.1642 15.5984 5.72208 15.4696 5.34746 15.22C5.07259 15.0292 4.74396 14.9313 4.40951 14.9404C4.07517 14.9313 3.74667 15.0293 3.47189 15.22C3.09786 15.4693 2.65645 15.5981 2.20703 15.5891C1.75686 15.5984 1.31463 15.4696 0.939892 15.22C0.664467 15.0288 0.335107 14.9309 0 14.9404V14.2918C0.450063 14.2825 0.892172 14.4113 1.26681 14.6608C1.54194 14.8516 1.87076 14.9495 2.20541 14.9404C2.53975 14.9495 2.86825 14.8515 3.14303 14.6608C3.51706 14.4115 3.95847 14.2827 4.40789 14.2918C4.85829 14.2822 5.30079 14.411 5.67568 14.6608C5.95065 14.8516 6.27939 14.9496 6.61395 14.9404C6.9485 14.9496 7.27724 14.8516 7.55222 14.6608C7.93076 14.4197 8.37023 14.2917 8.81903 14.2917C9.26782 14.2917 9.7073 14.4197 10.0858 14.6608C10.3647 14.8432 10.6907 14.9403 11.0239 14.9403C11.3572 14.9403 11.6832 14.8432 11.9621 14.6608C12.3406 14.4197 12.7801 14.2917 13.2289 14.2917C13.6777 14.2917 14.1171 14.4197 14.4957 14.6608C14.7746 14.8432 15.1006 14.9403 15.4338 14.9403C15.767 14.9403 16.093 14.8432 16.3719 14.6608C16.7508 14.4198 17.1906 14.2918 17.6397 14.2918C18.0888 14.2918 18.5285 14.4198 18.9075 14.6608C19.1868 14.8432 19.5133 14.9402 19.8469 14.9402C20.1805 14.9402 20.5069 14.8432 20.7863 14.6608C21.1613 14.4114 21.6037 14.2826 22.0541 14.2918V14.9404C21.7188 14.9309 21.3892 15.0289 21.1135 15.22C20.7386 15.4693 20.2965 15.598 19.8464 15.5891Z" fill="white"/>
<path d="M19.8454 13.3192C19.3953 13.3284 18.9531 13.1996 18.5783 12.9501C18.3031 12.7593 17.9743 12.6614 17.6397 12.6705C17.3941 12.6621 17.1502 12.7144 16.9297 12.8229L16.6437 12.2392C16.9533 12.0874 17.295 12.0125 17.6397 12.0209C18.0904 12.0117 18.5331 12.1409 18.9081 12.3909C19.1877 12.5737 19.5146 12.6711 19.8487 12.6711C20.1827 12.6711 20.5096 12.5737 20.7892 12.3909C21.1634 12.142 21.6047 12.0133 22.0541 12.0219V12.6705C21.7195 12.6614 21.3906 12.7592 21.1155 12.9498C20.7397 13.1996 20.2965 13.3285 19.8454 13.3192Z" fill="white"/>
<path d="M15.4314 13.319C14.9819 13.3285 14.5404 13.1997 14.1665 12.9503C13.8875 12.7678 13.5614 12.6706 13.2281 12.6706C12.8947 12.6706 12.5686 12.7678 12.2896 12.9503C11.911 13.1913 11.4715 13.3193 11.0226 13.3193C10.5738 13.3193 10.1343 13.1913 9.75568 12.9503C9.47673 12.7679 9.15068 12.6708 8.81741 12.6708C8.48413 12.6708 8.15809 12.7679 7.87914 12.9503C7.50457 13.1994 7.06276 13.3281 6.61297 13.319C6.16291 13.3283 5.7208 13.1995 5.34616 12.9499C5.07104 12.7592 4.74222 12.6613 4.40757 12.6704C4.07424 12.6614 3.74676 12.7591 3.47287 12.9493C3.09816 13.1993 2.65577 13.3284 2.20541 13.319C1.75534 13.3283 1.31323 13.1995 0.938595 12.9499C0.66347 12.7592 0.334649 12.6613 0 12.6704V12.0217C0.45017 12.0124 0.892396 12.1412 1.26714 12.3908C1.54211 12.5816 1.87085 12.6795 2.20541 12.6704C2.54011 12.6796 2.86899 12.5815 3.144 12.3905C3.51794 12.141 3.95944 12.0123 4.40886 12.0217C4.85893 12.0124 5.30103 12.1412 5.67568 12.3908C5.95065 12.5816 6.27939 12.6795 6.61395 12.6704C6.9486 12.6795 7.27742 12.5815 7.55254 12.3908C7.93116 12.1498 8.37068 12.0217 8.81951 12.0217C9.26835 12.0217 9.70787 12.1498 10.0865 12.3908C10.3654 12.5732 10.6915 12.6703 11.0248 12.6703C11.358 12.6703 11.6841 12.5732 11.963 12.3908C12.3417 12.1496 12.7814 12.0215 13.2303 12.0215C13.6793 12.0215 14.1189 12.1496 14.4976 12.3908C14.7834 12.583 15.1222 12.6807 15.4664 12.67C15.4914 12.6704 15.5164 12.6691 15.5413 12.6662L15.6276 13.309C15.5625 13.3166 15.4969 13.3199 15.4314 13.319Z" fill="white"/>
<path d="M19.8464 11.0485C19.3959 11.0577 18.9534 10.9289 18.5783 10.6794C18.2991 10.497 17.9727 10.3998 17.6392 10.3998C17.3056 10.3998 16.9793 10.497 16.7001 10.6794C16.3215 10.9204 15.8821 11.0484 15.4333 11.0484C14.9845 11.0484 14.5451 10.9204 14.1665 10.6794C13.8877 10.4971 13.5617 10.4 13.2285 10.4C12.8954 10.4 12.5694 10.4971 12.2906 10.6794C11.912 10.9205 11.4726 11.0485 11.0238 11.0485C10.575 11.0485 10.1355 10.9205 9.75697 10.6794C9.47814 10.4971 9.15219 10.4 8.81903 10.4C8.48586 10.4 8.15992 10.4971 7.88108 10.6794C7.50646 10.9291 7.06434 11.0579 6.61427 11.0485C6.1642 11.0579 5.72208 10.9291 5.34746 10.6794C5.07259 10.4887 4.74396 10.3907 4.40951 10.3999C4.07517 10.3908 3.74667 10.4887 3.47189 10.6794C3.09786 10.9288 2.65645 11.0576 2.20703 11.0485C1.75686 11.0579 1.31463 10.9291 0.939892 10.6794C0.664467 10.4883 0.335107 10.3904 0 10.3999V9.75123C0.450063 9.74193 0.892172 9.87073 1.26681 10.1203C1.54194 10.311 1.87076 10.409 2.20541 10.3999C2.53975 10.409 2.86825 10.311 3.14303 10.1203C3.51706 9.87098 3.95847 9.74218 4.40789 9.75123C4.85829 9.74166 5.30079 9.87048 5.67568 10.1203C5.95065 10.3111 6.27939 10.4091 6.61395 10.3999C6.9485 10.4091 7.27724 10.3111 7.55222 10.1203C7.93076 9.87922 8.37023 9.75115 8.81903 9.75115C9.26782 9.75115 9.7073 9.87922 10.0858 10.1203C10.3647 10.3027 10.6907 10.3998 11.0239 10.3998C11.3572 10.3998 11.6832 10.3027 11.9621 10.1203C12.3406 9.87922 12.7801 9.75115 13.2289 9.75115C13.6777 9.75115 14.1171 9.87922 14.4957 10.1203C14.7746 10.3027 15.1006 10.3998 15.4338 10.3998C15.767 10.3998 16.093 10.3027 16.3719 10.1203C16.7508 9.87931 17.1906 9.75131 17.6397 9.75131C18.0888 9.75131 18.5285 9.87931 18.9075 10.1203C19.1868 10.3026 19.5133 10.3997 19.8469 10.3997C20.1805 10.3997 20.5069 10.3026 20.7863 10.1203C21.1613 9.87088 21.6037 9.7421 22.0541 9.75123V10.3999C21.7188 10.3904 21.3892 10.4884 21.1135 10.6794C20.7386 10.9287 20.2965 11.0575 19.8464 11.0485Z" fill="white"/>
<path d="M15.2248 10.7735L14.6128 10.5588C14.7704 10.1059 14.8348 9.62587 14.8021 9.14749C14.7694 8.66911 14.6402 8.20228 14.4224 7.77511L12.1946 3.41262C12.1726 3.36954 12.1606 3.32209 12.1593 3.27373C12.158 3.22538 12.1675 3.17735 12.1872 3.13316C12.2069 3.08898 12.2362 3.04976 12.273 3.01837C12.3098 2.98698 12.3532 2.96422 12.3999 2.95176L16.8396 1.76798C16.9843 1.73014 17.1082 1.6367 17.1843 1.50799C17.2604 1.37928 17.2827 1.22571 17.2462 1.0807C17.2097 0.935679 17.1174 0.810945 16.9893 0.733633C16.8613 0.656321 16.708 0.632685 16.5626 0.667868L11.1892 1.95219C11.0744 1.97934 10.9673 2.03256 10.8763 2.10774C10.7853 2.18292 10.7128 2.27804 10.6645 2.38573C10.6162 2.49341 10.5933 2.61078 10.5976 2.72873C10.6019 2.84669 10.6334 2.96206 10.6894 3.06592L12.2851 6.03024C12.3256 6.10559 12.3347 6.19386 12.3104 6.27587C12.2861 6.35787 12.2304 6.42695 12.1554 6.46808L10.0959 7.60322L9.78296 7.035L11.5609 6.05489L10.119 3.37338C10.0158 3.18195 9.95806 2.96937 9.95019 2.75206C9.94232 2.53475 9.98454 2.31855 10.0736 2.12016C10.1626 1.92177 10.2961 1.74652 10.4637 1.60796C10.6312 1.46939 10.8285 1.37123 11.04 1.32106L16.4109 0.0370572C16.7235 -0.0419486 17.0548 0.00648876 17.3317 0.171713C17.6087 0.336938 17.8087 0.605415 17.8877 0.918084C17.9667 1.23075 17.9182 1.562 17.753 1.83896C17.5878 2.11591 17.3193 2.31589 17.0066 2.39489L12.9545 3.47489L15.0004 7.47965C15.258 7.98517 15.4107 8.53757 15.4492 9.10363C15.4878 9.66969 15.4115 10.2377 15.2248 10.7735Z" fill="white"/>
<path d="M8.64927 7.66493L4.70801 9.83667L5.0209 10.4045L8.96215 8.23275L8.64927 7.66493Z" fill="white"/>
<path d="M18.1622 8.61608C17.6811 8.61608 17.2108 8.47342 16.8108 8.20614C16.4108 7.93887 16.099 7.55897 15.9149 7.1145C15.7308 6.67004 15.6826 6.18095 15.7765 5.70911C15.8703 5.23726 16.102 4.80385 16.4422 4.46366C16.7824 4.12348 17.2158 3.89182 17.6876 3.79796C18.1595 3.7041 18.6485 3.75227 19.093 3.93638C19.5375 4.12048 19.9174 4.43225 20.1847 4.83227C20.4519 5.23228 20.5946 5.70256 20.5946 6.18365C20.5939 6.82856 20.3374 7.44686 19.8814 7.90288C19.4254 8.3589 18.8071 8.6154 18.1622 8.61608ZM18.1622 4.39987C17.8094 4.39987 17.4645 4.50449 17.1712 4.70049C16.8778 4.8965 16.6492 5.17509 16.5142 5.50103C16.3792 5.82697 16.3438 6.18563 16.4127 6.53165C16.4815 6.87767 16.6514 7.19551 16.9008 7.44498C17.1503 7.69444 17.4681 7.86433 17.8142 7.93316C18.1602 8.00199 18.5188 7.96666 18.8448 7.83165C19.1707 7.69664 19.4493 7.46801 19.6453 7.17467C19.8413 6.88133 19.9459 6.53645 19.9459 6.18365C19.9453 5.71075 19.7572 5.25739 19.4228 4.92299C19.0884 4.5886 18.6351 4.40047 18.1622 4.39987Z" fill="white"/>
</svg>
