<svg width="742" height="724" viewBox="0 0 742 724" fill="none" xmlns="http://www.w3.org/2000/svg">
<path d="M60.3069 222C19.9069 153.2 43.4736 13.3333 60.3069 -48L739.807 -149L804.307 122.5L765.807 723.5C687.14 724.5 511.707 717 439.307 679C348.807 631.5 389.807 555 314.807 515C239.807 475 282.807 369.5 256.807 329.5C230.807 289.5 110.807 308 60.3069 222Z" fill="#FFF1DA"/>
<path d="M580.174 294.847C578.816 295.151 577.493 295.715 576.287 296.502C573.147 298.504 571.319 301.36 572.206 302.883C573.093 304.405 576.358 304.015 579.499 302.014C580.721 301.255 581.806 300.284 582.688 299.162C583.098 298.62 583.171 297.944 582.876 297.439L581.724 295.462C581.431 294.955 580.823 294.714 580.174 294.847Z" fill="#D5D6DB"/>
<path d="M572.287 267.854C571.303 268.075 570.343 268.484 569.469 269.055C567.192 270.506 565.866 272.577 566.509 273.68C567.151 274.782 569.52 274.5 571.797 273.049C572.682 272.498 573.469 271.794 574.109 270.98C574.406 270.587 574.459 270.098 574.245 269.732L573.41 268.3C573.198 267.933 572.758 267.758 572.287 267.854Z" fill="#D5D6DB"/>
<path d="M559.473 268.985C559.254 268.96 559.02 269.018 558.817 269.148L553.469 272.556C553.022 272.84 552.843 273.388 553.07 273.779C553.122 273.869 553.193 273.945 553.279 274.004L566.461 283.089L584.294 271.724L559.473 268.985Z" fill="#029BC5"/>
<path d="M615.85 267.7L567.318 298.252L538.605 309.677L523.962 312.588L522.351 309.851L603.246 259.904C605.657 258.409 608.343 257.492 611.032 257.245C612.209 257.143 613.372 257.182 614.493 257.361C615.487 257.512 616.43 257.802 617.294 258.224C618.258 258.703 620.092 258.758 620.687 259.711C620.689 259.709 622.091 264.083 615.85 267.7Z" fill="#E1E6E9"/>
<path d="M567.961 294.209L546.966 327.679C546.704 328.15 546.86 328.676 547.314 328.855C547.592 328.965 547.933 328.922 548.219 328.74L553.563 325.35C554.591 324.697 555.501 323.869 556.238 322.915L596.954 275.046L567.961 294.209Z" fill="#029BC5"/>
<path d="M514.982 293.092C514.632 292.972 514.215 293.034 513.863 293.258L509.446 296.072C508.844 296.455 508.604 297.191 508.91 297.717C508.968 297.817 509.044 297.905 509.134 297.977L521.511 307.89L534.524 299.762L514.982 293.092Z" fill="#029BC5"/>
<path d="M525.659 309.677L518.998 319.006C518.9 319.14 518.923 319.308 519.049 319.382C519.14 319.435 519.264 319.425 519.365 319.358L523.493 316.742C523.525 316.721 523.554 316.696 523.578 316.667L533.312 304.832L525.659 309.677Z" fill="#029BC5"/>
<path d="M613.697 257.763C612.542 257.578 611.344 257.538 610.132 257.645C608.951 259.296 608.196 261.15 607.943 263.024C607.924 263.4 608.227 263.671 608.62 263.629C608.742 263.616 608.864 263.573 608.973 263.504L616.581 258.66C615.692 258.221 614.72 257.919 613.697 257.763Z" fill="#029BC5"/>
<path d="M597.117 266.671L602.084 263.534L606.711 271.403L601.744 274.54L597.117 266.671Z" fill="#D5D6DB"/>
<path d="M593.992 269.783C593.394 270.163 593.154 270.891 593.458 271.411L593.95 272.253C594.274 272.76 595.014 272.849 595.602 272.452C596.162 272.074 596.387 271.387 596.117 270.88L595.625 270.038C595.321 269.519 594.591 269.405 593.992 269.783Z" fill="#3A556A"/>
<path d="M589.528 272.556C588.929 272.935 588.69 273.664 588.994 274.184L589.486 275.026C589.81 275.532 590.549 275.621 591.137 275.224C591.697 274.847 591.923 274.16 591.653 273.653L591.161 272.811C590.857 272.292 590.126 272.177 589.528 272.556Z" fill="#3A556A"/>
<path d="M585.062 275.329C584.464 275.709 584.226 276.437 584.529 276.956L585.021 277.798C585.345 278.304 586.085 278.394 586.673 277.997C587.233 277.619 587.458 276.932 587.188 276.425L586.696 275.583C586.392 275.064 585.661 274.95 585.062 275.329Z" fill="#3A556A"/>
<path d="M580.597 278.102C580 278.481 579.761 279.209 580.065 279.728L580.557 280.57C580.881 281.077 581.62 281.166 582.209 280.769C582.768 280.391 582.994 279.705 582.724 279.198L582.232 278.356C581.928 277.836 581.196 277.722 580.597 278.102Z" fill="#3A556A"/>
<path d="M576.133 280.874C575.535 281.254 575.297 281.982 575.601 282.502L576.093 283.344C576.397 283.863 577.128 283.977 577.726 283.598C578.325 283.219 578.564 282.491 578.26 281.972L577.767 281.129C577.465 280.61 576.734 280.495 576.135 280.873C576.134 280.874 576.134 280.874 576.133 280.874Z" fill="#3A556A"/>
<path d="M571.669 283.647C571.071 284.027 570.832 284.755 571.136 285.274L571.629 286.117C571.932 286.636 572.664 286.75 573.262 286.371C573.86 285.992 574.099 285.263 573.796 284.744L573.303 283.902C573 283.382 572.269 283.268 571.67 283.646C571.67 283.646 571.669 283.647 571.669 283.647Z" fill="#3A556A"/>
<path d="M567.205 286.419C566.606 286.799 566.368 287.527 566.672 288.047L567.164 288.889C567.469 289.408 568.2 289.52 568.798 289.141C569.395 288.762 569.633 288.035 569.331 287.517L568.838 286.675C568.535 286.155 567.803 286.041 567.205 286.419Z" fill="#3A556A"/>
<path d="M562.74 289.192C562.142 289.572 561.903 290.3 562.207 290.819L562.7 291.662C563.004 292.18 563.736 292.293 564.333 291.914C564.93 291.535 565.168 290.808 564.866 290.289L564.374 289.447C564.07 288.927 563.339 288.813 562.74 289.192Z" fill="#3A556A"/>
<path d="M558.276 291.964C557.677 292.344 557.439 293.072 557.743 293.592L558.235 294.434C558.54 294.953 559.271 295.065 559.869 294.686C560.466 294.307 560.704 293.58 560.402 293.062L559.909 292.219C559.605 291.7 558.874 291.586 558.276 291.964Z" fill="#3A556A"/>
<path d="M553.81 294.737C553.211 295.116 552.972 295.845 553.276 296.364L553.277 296.365L553.769 297.207C554.074 297.726 554.805 297.839 555.403 297.459C556 297.08 556.238 296.354 555.936 295.835L555.443 294.993C555.14 294.473 554.409 294.359 553.81 294.737Z" fill="#3A556A"/>
<path d="M549.347 297.509C548.748 297.888 548.509 298.616 548.813 299.136L548.814 299.137L549.306 299.979C549.611 300.498 550.342 300.61 550.94 300.231C551.537 299.852 551.775 299.125 551.473 298.607L550.98 297.764C550.677 297.245 549.945 297.131 549.347 297.509Z" fill="#3A556A"/>
<path d="M96.1744 247.847C94.816 248.151 93.493 248.715 92.2875 249.502C89.1467 251.504 87.3194 254.36 88.2063 255.883C89.0933 257.405 92.3583 257.015 95.4991 255.014C96.7209 254.255 97.8063 253.284 98.6884 252.162C99.0978 251.62 99.1713 250.944 98.8761 250.439L97.7239 248.462C97.4307 247.955 96.8226 247.714 96.1744 247.847Z" fill="#D5D6DB"/>
<path d="M88.2873 220.854C87.3024 221.075 86.343 221.484 85.4687 222.055C83.1919 223.506 81.8661 225.577 82.5087 226.68C83.1513 227.783 85.5198 227.5 87.7964 226.049C88.6823 225.498 89.4692 224.794 90.109 223.98C90.4055 223.587 90.4586 223.098 90.2446 222.732L89.4103 221.3C89.1981 220.933 88.7574 220.758 88.2873 220.854Z" fill="#D5D6DB"/>
<path d="M75.4733 221.985C75.254 221.96 75.0202 222.019 74.8174 222.148L69.4693 225.556C69.0219 225.84 68.8429 226.388 69.0698 226.779C69.1217 226.869 69.1927 226.945 69.279 227.004L82.4606 236.089L100.294 224.724L75.4733 221.985Z" fill="#029BC5"/>
<path d="M131.85 220.7L83.3181 251.252L54.6054 262.677L39.9623 265.588L38.3513 262.851L119.246 212.904C121.657 211.409 124.343 210.492 127.032 210.245C128.209 210.143 129.372 210.182 130.493 210.361C131.487 210.512 132.43 210.802 133.294 211.224C134.258 211.703 136.092 211.758 136.687 212.711C136.689 212.709 138.091 217.084 131.85 220.7Z" fill="#E1E6E9"/>
<path d="M83.9615 247.209L62.9662 280.679C62.704 281.15 62.8597 281.676 63.3135 281.855C63.5921 281.965 63.933 281.922 64.2194 281.74L69.5634 278.35C70.5913 277.697 71.5014 276.869 72.2375 275.915L112.954 228.046L83.9615 247.209Z" fill="#029BC5"/>
<path d="M30.9819 246.092C30.6317 245.972 30.2149 246.034 29.8631 246.258L25.4456 249.072C24.8437 249.455 24.6038 250.191 24.9097 250.717C24.9679 250.817 25.0436 250.905 25.1344 250.977L37.5111 260.89L50.5241 252.762L30.9819 246.092Z" fill="#029BC5"/>
<path d="M41.6596 262.677L34.9981 272.006C34.9004 272.14 34.9234 272.308 35.0494 272.382C35.1402 272.435 35.2642 272.425 35.365 272.358L39.4932 269.742C39.5253 269.721 39.5543 269.696 39.5783 269.667L49.3119 257.832L41.6596 262.677Z" fill="#029BC5"/>
<path d="M129.697 210.763C128.542 210.578 127.345 210.538 126.132 210.645C124.951 212.296 124.196 214.151 123.943 216.024C123.924 216.4 124.228 216.671 124.62 216.629C124.743 216.616 124.864 216.573 124.973 216.504L132.581 211.66C131.692 211.221 130.72 210.919 129.697 210.763Z" fill="#029BC5"/>
<path d="M113.117 219.671L118.084 216.534L122.711 224.403L117.744 227.54L113.117 219.671Z" fill="#D5D6DB"/>
<path d="M109.992 222.783C109.393 223.163 109.154 223.891 109.458 224.411L109.95 225.253C110.274 225.76 111.013 225.849 111.602 225.452C112.162 225.074 112.387 224.387 112.117 223.88L111.625 223.038C111.321 222.519 110.59 222.405 109.992 222.783Z" fill="#3A556A"/>
<path d="M105.528 225.556C104.929 225.935 104.69 226.664 104.994 227.184L105.486 228.026C105.81 228.532 106.549 228.621 107.137 228.224C107.697 227.847 107.923 227.16 107.653 226.653L107.161 225.811C106.857 225.292 106.126 225.178 105.528 225.556Z" fill="#3A556A"/>
<path d="M101.062 228.329C100.464 228.709 100.225 229.437 100.529 229.956L101.021 230.798C101.345 231.304 102.084 231.394 102.673 230.997C103.233 230.619 103.458 229.932 103.188 229.425L102.696 228.583C102.392 228.064 101.66 227.95 101.062 228.329Z" fill="#3A556A"/>
<path d="M96.5973 231.102C95.9994 231.481 95.7611 232.209 96.0647 232.728L96.557 233.57C96.8808 234.077 97.6201 234.166 98.2084 233.769C98.7682 233.391 98.9937 232.705 98.7239 232.198L98.2316 231.356C97.9274 230.836 97.1959 230.722 96.5973 231.102Z" fill="#3A556A"/>
<path d="M92.1334 233.874C91.5351 234.254 91.2966 234.982 91.6004 235.502L92.093 236.344C92.3967 236.863 93.1279 236.977 93.7263 236.598C94.3247 236.219 94.5636 235.491 94.2599 234.972L93.7673 234.129C93.4644 233.61 92.7334 233.495 92.1346 233.874C92.1341 233.874 92.1339 233.874 92.1334 233.874Z" fill="#3A556A"/>
<path d="M87.669 236.647C87.0708 237.027 86.8323 237.755 87.1361 238.274L87.6287 239.117C87.9323 239.636 88.6636 239.75 89.2619 239.371C89.8603 238.992 90.0992 238.263 89.7956 237.744L89.303 236.902C89 236.382 88.269 236.268 87.6703 236.646C87.6698 236.646 87.6693 236.647 87.669 236.647Z" fill="#3A556A"/>
<path d="M83.2044 239.419C82.6062 239.799 82.3677 240.527 82.6714 241.047L83.164 241.889C83.4685 242.408 84.2001 242.52 84.7978 242.141C85.3945 241.762 85.6329 241.035 85.3306 240.517L84.838 239.675C84.5345 239.155 83.8033 239.041 83.2044 239.419Z" fill="#3A556A"/>
<path d="M78.7398 242.192C78.1416 242.572 77.9031 243.3 78.2068 243.819L78.6994 244.662C79.0039 245.18 79.7355 245.293 80.3332 244.914C80.9299 244.535 81.1683 243.808 80.866 243.289L80.3734 242.447C80.0699 241.927 79.3387 241.813 78.7398 242.192Z" fill="#3A556A"/>
<path d="M74.2756 244.964C73.6773 245.344 73.4388 246.072 73.7426 246.592L74.2352 247.434C74.5396 247.953 75.2712 248.065 75.869 247.686C76.4657 247.307 76.7041 246.58 76.4018 246.062L75.9092 245.219C75.6054 244.7 74.8742 244.586 74.2756 244.964Z" fill="#3A556A"/>
<path d="M69.8097 247.737C69.2114 248.116 68.9725 248.845 69.2762 249.364L69.2768 249.365L69.7694 250.207C70.0738 250.726 70.8054 250.839 71.4031 250.459C71.9999 250.08 72.2382 249.354 71.936 248.835L71.4434 247.993C71.1399 247.473 70.4086 247.359 69.8097 247.737Z" fill="#3A556A"/>
<path d="M65.3465 250.509C64.7481 250.888 64.5092 251.616 64.8129 252.136L64.8135 252.137L65.3061 252.979C65.6106 253.498 66.3422 253.61 66.9399 253.231C67.5366 252.852 67.775 252.125 67.4728 251.607L66.9802 250.764C66.6764 250.245 65.9451 250.131 65.3465 250.509Z" fill="#3A556A"/>
</svg>
