<svg width="387" height="361" viewBox="0 0 387 361" fill="none" xmlns="http://www.w3.org/2000/svg">
<g opacity="0.1">
<mask id="mask0_1_470" style="mask-type:alpha" maskUnits="userSpaceOnUse" x="0" y="0" width="387" height="361">
<rect x="386.5" y="0.500017" width="360" height="386" transform="rotate(90 386.5 0.500017)" fill="url(#paint0_linear_1_470)" stroke="#6246E5"/>
</mask>
<g mask="url(#mask0_1_470)">
<path d="M269.045 328.202C269.045 397.635 212.838 453.92 143.506 453.92C74.1727 453.92 17.9656 397.635 17.9656 328.202C17.9656 258.769 74.1728 202.484 143.506 202.484C212.838 202.485 269.045 258.77 269.045 328.202Z" stroke="#6246E5"/>
<path d="M297.238 318.238C297.238 395.925 234.349 458.902 156.773 458.902C79.197 458.902 16.3073 395.925 16.3071 318.238C16.3071 240.55 79.1968 177.573 156.773 177.573C234.349 177.573 297.238 240.55 297.238 318.238Z" stroke="#6246E5"/>
<path d="M321.285 309.934C321.284 394.959 252.455 463.885 167.552 463.885C82.6489 463.885 13.82 394.959 13.8198 309.934C13.8198 224.909 82.6488 155.983 167.552 155.983C252.456 155.983 321.285 224.909 321.285 309.934Z" stroke="#6246E5"/>
<path d="M348.649 301.63C348.649 393.076 274.622 467.207 183.307 467.207C91.9925 467.206 17.9663 393.076 17.9663 301.63C17.9663 210.185 91.9925 136.054 183.307 136.054C274.622 136.054 348.649 210.185 348.649 301.63Z" stroke="#6246E5"/>
<path d="M375.183 293.741C375.183 391.378 296.144 470.528 198.647 470.528C101.15 470.527 22.112 391.378 22.112 293.741C22.1121 196.105 101.15 116.956 198.647 116.955C296.144 116.955 375.183 196.105 375.183 293.741Z" stroke="#6246E5"/>
<path d="M410.01 280.456C410.01 387.724 323.175 474.68 216.061 474.68C108.947 474.68 22.1118 387.723 22.1115 280.456C22.1116 173.188 108.946 86.2316 216.061 86.2315C323.175 86.2315 410.01 173.188 410.01 280.456Z" stroke="#6246E5"/>
</g>
</g>
<defs>
<linearGradient id="paint0_linear_1_470" x1="643.035" y1="10.8577" x2="468.291" y2="421.585" gradientUnits="userSpaceOnUse">
<stop stop-color="#747DEF"/>
<stop offset="1" stop-color="#5E3BE1"/>
</linearGradient>
</defs>
</svg>
